<svg width="302" height="48" viewBox="0 0 302 48" fill="none" xmlns="http://www.w3.org/2000/svg">
<path fill-rule="evenodd" clip-rule="evenodd" d="M250.087 14.5081H233.167V20.8972H250.043C253.399 20.8972 256.119 23.6166 256.119 26.9711C256.119 30.3257 253.399 33.0451 250.043 33.0451H239.596V27.2886H233.169V47.6063H239.596V39.4459H250.113V39.4319C254.566 39.4277 258.678 37.0493 260.901 33.1925C263.123 29.3358 263.119 24.5867 260.889 20.7341C258.659 16.8816 254.542 14.5109 250.09 14.5151L250.087 14.5081Z" fill="#8A68B7" stroke="#8A68B7" stroke-width="0.5" stroke-dasharray="71.05 71.05"/>
<path fill-rule="evenodd" clip-rule="evenodd" d="M301.005 26.9747C300.984 20.1794 295.532 14.6479 288.735 14.5268V14.5127H271.599V20.8972H288.475C291.83 20.8972 294.55 23.6161 294.55 26.97C294.55 30.3239 291.83 33.0428 288.475 33.0428H278.035V27.2886H271.608V47.6063H278.035V39.4459H288.744V39.4202C295.537 39.2953 300.984 33.7659 301.005 26.9747Z" fill="#8A68B7" stroke="#8A68B7" stroke-width="0.5" stroke-dasharray="71.04 71.04"/>
<path fill-rule="evenodd" clip-rule="evenodd" d="M86.2131 39.4834L83.5529 33.0943H77.6628L82.9927 21.9608L95.2674 47.6063H102.386L86.5436 14.5268V14.5127H79.416V14.5268L63.5974 47.6063H70.7133L74.6064 39.4764H86.2131V39.4834Z" fill="#8A68B7" stroke="#8A68B7" stroke-width="0.5" stroke-dasharray="72.1 72.1"/>
<path fill-rule="evenodd" clip-rule="evenodd" d="M151.955 14.5127H150.783V47.6063H176.516L178.825 41.2195H157.208V34.2517H169.478V27.8696H157.208V20.8972H178.825V14.5127H151.955Z" fill="#8A68B7" stroke="#8A68B7" stroke-width="0.5" stroke-dasharray="80.28 80.28"/>
<path fill-rule="evenodd" clip-rule="evenodd" d="M134.123 47.6063H142.069L126.914 29.1254L141.033 15.0891H132.262L117.496 29.7744V14.5127H111.069V47.6063H117.482V38.4924L122.531 33.4739L134.123 47.6063Z" fill="#8A68B7" stroke="#8A68B7" stroke-width="0.5" stroke-dasharray="75.56 75.56"/>
<path fill-rule="evenodd" clip-rule="evenodd" d="M208.658 14.5127H201.532V14.5268L192.647 33.0967L185.704 47.6063H192.82L196.713 39.4764H207.851L205.191 33.0873H199.77L205.1 21.9538L217.374 47.6063H224.493L208.658 14.5268V14.5127Z" fill="#8A68B7" stroke="#8A68B7" stroke-width="0.5" stroke-dasharray="71.7 71.7"/>
<path fill-rule="evenodd" clip-rule="evenodd" d="M42.0737 47.5641L42.0526 47.611H49.1146L49.0935 47.5641L66.152 9.57859L69.2833 11.0312L66.7262 0.748184L57.1563 5.40822L60.3345 6.88191L45.5847 39.6404L34.4656 14.5198H27.434L16.3289 39.6404L8.12547 21.0659H1.00488L12.8296 47.5782L12.8085 47.625H19.8705L19.8494 47.5782L30.9685 22.4599L42.0737 47.5641Z" fill="#8A68B7" stroke="#8A68B7" stroke-width="0.5" stroke-dasharray="125.23 125.23"/>
</svg>
